<svg version="1.1" id="Layer_1" xmlns="http://www.w3.org/2000/svg" xmlns:xlink="http://www.w3.org/1999/xlink" x="0px" y="0px"
	 width="100%" viewBox="0 0 518 779" enable-background="new 0 0 518 779" xml:space="preserve">
<path fill="#FFFAEF" opacity="1.000000" stroke="none" 
	d="
M263.000000,780.000000 
	C176.666702,780.000000 90.833359,779.973816 5.000228,780.095886 
	C1.576197,780.100708 0.904424,779.423767 0.905797,776.000061 
	C1.008817,519.000183 1.008794,262.000275 0.905865,5.000409 
	C0.904494,1.577715 1.575243,0.903136 4.999686,0.905311 
	C174.999557,1.013296 344.999512,1.013271 514.999390,0.905438 
	C518.421875,0.903267 519.095642,1.574843 519.094238,4.999479 
	C518.991150,261.999329 518.991272,518.999268 519.094116,775.999084 
	C519.095459,779.420715 518.426758,780.101135 515.000732,780.096069 
	C431.167267,779.973206 347.333618,780.000000 263.000000,780.000000 
z"/>
<path fill="#090909" opacity="1.000000" stroke="none" 
	d="
M179.013794,172.996048 
	C176.017303,172.996048 173.497559,173.198975 171.023682,172.948654 
	C167.280563,172.569885 164.495468,173.215607 164.257690,177.682129 
	C164.157532,179.563934 163.154739,180.321075 161.323303,180.076874 
	C161.159668,180.055054 160.990128,180.068039 160.823914,180.076477 
	C149.240570,180.665298 149.240585,180.665390 149.240570,169.011002 
	C149.240570,164.845657 149.518555,160.655945 149.156311,156.522354 
	C148.842682,152.943665 150.344711,151.252121 153.342865,149.656616 
	C163.077209,144.476379 172.640305,138.974319 182.005966,132.430557 
	C177.122009,132.430557 172.238068,132.428970 167.354126,132.431244 
	C164.921478,132.432373 164.992615,134.418884 164.703018,135.961563 
	C164.207016,138.603775 163.089066,139.716827 160.065750,139.722076 
	C149.240280,139.740814 149.240509,139.895599 149.240601,129.208954 
	C149.240646,123.544090 149.363968,117.875359 149.186417,112.216072 
	C149.104065,109.591415 149.936111,108.604111 152.567001,108.829506 
	C154.717178,109.013710 156.918289,109.064430 159.056488,108.820602 
	C162.331955,108.447090 164.625977,109.206718 164.786331,112.921066 
	C164.922424,116.073479 166.965164,115.997208 169.279907,115.988434 
	C183.275238,115.935356 197.272324,116.068840 211.265335,115.880165 
	C214.405640,115.837814 214.742798,116.823051 215.151779,119.728920 
	C216.689270,130.652451 213.610352,138.080582 202.602432,142.497467 
	C194.983368,145.554596 188.244247,150.806412 181.126755,155.102097 
	C180.941681,155.213821 180.928665,155.610626 180.577606,156.603821 
	C186.194641,156.603821 191.574265,156.566162 196.952972,156.620682 
	C199.415085,156.645615 199.566010,154.615219 199.714142,153.182648 
	C200.057709,149.860077 201.827682,149.324158 204.785904,149.331207 
	C215.005829,149.355576 215.006088,149.250168 215.006027,159.308426 
	C215.005997,165.306519 214.916855,171.306625 215.052551,177.301636 
	C215.101990,179.485413 214.451218,180.277359 212.245163,180.113876 
	C209.925323,179.941940 207.556793,179.855591 205.256363,180.127701 
	C201.845123,180.531219 199.830460,179.579071 199.633743,175.846786 
	C199.496994,173.252411 197.768539,172.893753 195.504715,172.952164 
	C190.176682,173.089630 184.842667,172.996124 179.013794,172.996048 
z"/>
<path fill="#090909" opacity="1.000000" stroke="none" 
	d="
M175.024414,310.769714 
	C182.015320,310.769684 188.517136,310.609680 195.004745,310.843506 
	C197.837387,310.945648 199.596985,310.207642 199.761459,307.315643 
	C199.956451,303.887238 201.917511,303.523102 204.802567,303.531738 
	C215.005539,303.562317 215.005829,303.471039 215.005814,313.469238 
	C215.005814,319.299011 215.041718,325.129242 214.973038,330.958191 
	C214.960526,332.019653 215.558929,333.295197 214.294617,334.141510 
	C212.035995,335.653412 201.345993,333.576843 199.362915,331.522644 
	C196.375381,328.427917 192.459229,330.305756 189.047516,330.334991 
	C186.092270,330.360291 187.783768,333.446533 187.373444,335.148621 
	C187.183701,335.935699 187.341064,336.806458 187.341049,337.639282 
	C187.340881,346.803497 187.916428,347.298859 197.008499,346.044312 
	C197.808167,345.933960 198.663467,346.109772 199.147964,345.182892 
	C202.722336,338.344543 208.941818,343.183075 213.804947,341.986603 
	C215.445328,341.583038 214.972641,343.627533 214.978455,344.641846 
	C215.026260,352.969849 214.926895,361.299408 215.054398,369.625732 
	C215.091354,372.039551 214.325226,372.912811 211.926895,372.722351 
	C209.775146,372.551483 207.582092,372.515015 205.437683,372.727112 
	C202.177963,373.049377 199.926620,372.439850 199.677444,368.557129 
	C199.527481,366.220398 198.121689,365.356201 195.618042,365.403412 
	C186.793228,365.569946 177.962570,365.532837 169.135895,365.426483 
	C166.639267,365.396393 164.910278,365.817169 164.726929,368.725891 
	C164.488312,372.511566 162.030838,372.799896 158.865707,372.752136 
	C149.242676,372.606812 149.240952,372.721313 149.240967,363.083923 
	C149.240982,357.254150 149.430939,351.415710 149.166153,345.597992 
	C149.019745,342.381622 150.183655,341.514008 153.158356,341.781891 
	C155.636734,342.005066 158.152313,341.873444 160.649292,341.812134 
	C162.379028,341.769653 164.080170,341.745300 164.590027,343.855377 
	C165.109543,346.005402 166.645340,346.001678 168.402206,346.068237 
	C176.104401,346.360199 176.102905,346.399994 176.102936,338.707001 
	C176.102936,338.040741 176.255905,337.329376 176.075302,336.716339 
	C175.439590,334.558319 177.732788,330.721039 174.537979,330.440094 
	C171.184647,330.145233 166.525116,327.672516 164.127426,333.078339 
	C162.979095,335.667419 160.239746,334.261169 158.274078,334.295471 
	C149.242447,334.453125 149.240875,334.367554 149.240967,325.230774 
	C149.241013,319.067871 149.335037,312.902802 149.193970,306.743134 
	C149.139786,304.377106 149.850174,303.380096 152.280807,303.561035 
	C154.268555,303.708954 156.296570,303.772614 158.270523,303.550995 
	C162.049545,303.126801 164.800415,303.825806 164.969833,308.365509 
	C165.040695,310.264099 166.277679,310.836517 168.034027,310.782776 
	C170.197296,310.716553 172.364212,310.768677 175.024414,310.769714 
z"/>
<path fill="#0B0B0B" opacity="1.000000" stroke="none" 
	d="
M175.052963,529.814209 
	C172.728851,529.814270 170.884918,529.946411 169.067719,529.782410 
	C166.537201,529.554016 164.908463,530.159607 164.707428,533.055420 
	C164.477295,536.370605 162.555542,537.076904 159.355164,537.017944 
	C149.236771,536.831421 149.233856,536.989990 149.233856,526.881165 
	C149.233856,516.388794 149.522171,505.885071 149.112045,495.408722 
	C148.907410,490.181458 150.809753,486.495422 153.811951,482.433105 
	C157.872299,476.939087 162.382095,474.931641 169.267502,475.087646 
	C176.168716,475.244019 181.975006,475.867126 185.654953,482.437408 
	C186.387863,483.745941 187.537476,485.055878 189.216431,483.585815 
	C192.770676,480.473694 198.824661,480.087219 199.630386,473.937622 
	C199.835144,472.374725 201.325500,472.727478 202.458832,472.642914 
	C215.011185,471.706390 214.709900,471.712097 215.160385,484.154266 
	C215.337631,489.049683 213.746094,491.630219 209.555252,493.760956 
	C203.638611,496.769196 198.059372,500.435516 192.278397,503.719238 
	C190.417862,504.776093 189.015030,505.833557 189.289230,508.300018 
	C189.461563,509.850067 190.245346,510.503815 191.543213,510.183228 
	C194.078812,509.556885 197.184601,511.926514 199.215790,508.710846 
	C200.315918,506.969238 199.245636,503.664734 201.887955,503.319885 
	C205.816330,502.807220 209.866943,503.045441 213.851852,503.241760 
	C215.478058,503.321899 214.985367,505.012146 214.989380,506.068115 
	C215.024796,515.394531 215.012115,524.721191 215.005356,534.047791 
	C215.004883,534.711975 215.179565,535.797363 214.866699,535.976135 
	C211.191742,538.075867 207.160889,536.394653 203.316971,536.925537 
	C201.212006,537.216248 200.168030,536.163757 200.027313,534.185913 
	C199.751862,530.314087 197.525177,529.584473 194.028412,529.738525 
	C187.878128,530.009460 181.707291,529.814209 175.052963,529.814209 
z"/>
<path fill="#0A0A09" opacity="1.000000" stroke="none" 
	d="
M214.413177,184.769806 
	C214.862808,195.014618 214.943863,204.995880 214.988037,214.977325 
	C214.991547,215.770218 215.001236,216.778076 214.559052,217.319046 
	C213.009415,219.214951 200.935257,217.466202 199.838150,215.183228 
	C199.126694,213.702744 198.554230,212.435883 196.599899,213.426834 
	C195.136429,214.168900 192.811447,213.719467 192.989380,216.574310 
	C193.185730,219.725052 193.227707,222.913712 192.969177,226.055603 
	C192.759109,228.608215 194.288254,228.925613 196.094818,229.557556 
	C198.079956,230.251984 199.247833,229.927139 199.870514,227.867752 
	C200.973923,224.218521 204.028168,225.853851 206.206680,225.808411 
	C215.004578,225.624939 215.006790,225.731201 215.006790,234.463654 
	C215.006790,239.624435 215.012894,244.785217 215.001465,249.945969 
	C214.999252,250.942322 215.304184,252.543472 214.829346,252.838455 
	C211.234329,255.071640 207.179184,253.351135 203.350433,253.875259 
	C201.252289,254.162491 200.140518,253.128220 200.057465,251.148560 
	C199.894638,247.267532 197.461884,245.985382 194.108704,245.102448 
	C185.599350,242.861832 177.135651,240.434586 168.713318,237.885056 
	C166.310257,237.157623 164.960236,237.268036 164.629028,240.060165 
	C164.347809,242.430908 162.950302,243.084305 160.549377,243.135880 
	C149.237640,243.378830 149.239487,243.465088 149.239487,232.247864 
	C149.239487,224.756424 149.519531,217.250168 149.124771,209.779587 
	C148.918427,205.874725 150.569580,204.768967 153.885986,203.962524 
	C167.442825,200.666046 180.926468,197.068604 194.482315,193.767776 
	C197.536606,193.024063 199.774780,191.941086 199.837418,188.486969 
	C199.902237,184.912796 201.872162,184.110855 205.052322,184.375931 
	C208.029556,184.624100 211.039581,184.478577 214.413177,184.769806 
z"/>
<path fill="#0A0A09" opacity="1.000000" stroke="none" 
	d="
M199.666000,606.534668 
	C199.161469,604.410400 198.387238,603.367615 196.412384,602.837280 
	C186.948471,600.295715 177.525452,597.592102 168.144165,594.759766 
	C165.988861,594.109070 164.996246,594.492310 164.780655,596.668457 
	C164.442184,600.084717 162.159332,600.123840 159.461441,600.112610 
	C149.239777,600.070007 149.239487,600.137878 149.239487,590.153259 
	C149.239487,582.326416 149.460876,574.490540 149.139542,566.676880 
	C148.994125,563.140869 150.155746,561.814514 153.492538,561.015869 
	C167.064728,557.767456 180.549057,554.152649 194.115265,550.877930 
	C197.550262,550.048767 199.891983,548.733582 199.967712,544.878479 
	C200.021912,542.118774 201.499100,541.406677 204.169662,541.355591 
	C215.008606,541.148315 215.006866,541.053040 215.006790,551.705750 
	C215.006744,558.366882 214.932709,565.029297 215.047424,571.688416 
	C215.086227,573.941040 214.625473,575.084900 212.054962,574.894653 
	C209.239410,574.686279 206.394180,574.777588 203.566345,574.871887 
	C201.699142,574.934143 200.338425,574.572021 199.861984,572.475098 
	C199.452362,570.672363 198.677567,569.543213 196.373245,570.446899 
	C194.447632,571.202026 192.666779,571.477051 192.965714,574.298401 
	C193.262314,577.097961 193.186035,579.964722 192.981567,582.780884 
	C192.816223,585.058289 193.676239,585.892395 195.829315,586.504028 
	C198.025085,587.127808 199.273407,586.989746 199.952637,584.655701 
	C200.860870,581.534546 203.514481,582.814941 205.435760,582.787048 
	C215.005859,582.648193 215.006790,582.712402 215.006790,592.197571 
	C215.006790,597.026917 214.746017,601.874939 215.091110,606.679504 
	C215.356613,610.376099 213.955734,611.331848 210.594650,610.918335 
	C208.626129,610.676025 206.577103,610.668884 204.611038,610.920837 
	C201.429718,611.328491 199.893677,610.077087 199.666000,606.534668 
z"/>
<path fill="#0B0B0A" opacity="1.000000" stroke="none" 
	d="
M196.754501,669.923523 
	C185.804153,669.923523 175.319962,669.859863 164.837662,669.972351 
	C162.482864,669.997620 160.624161,669.584900 159.367752,667.467224 
	C159.031677,666.900757 158.626572,666.316956 158.113708,665.922302 
	C145.248352,656.020325 149.160126,641.860840 149.691177,629.112061 
	C149.902039,624.049927 155.716110,619.732849 159.914581,616.120300 
	C162.446533,613.941650 166.657333,615.674438 170.101059,615.400696 
	C172.369278,615.220398 172.350677,616.757141 172.337952,618.344360 
	C172.312576,621.505859 172.121124,624.685486 172.386566,627.824707 
	C172.690384,631.417908 172.162109,634.010132 167.820801,634.240051 
	C166.352036,634.317871 165.526443,635.323242 165.566071,636.976013 
	C165.641815,640.135925 165.475769,643.304810 165.636139,646.458496 
	C165.774979,649.188354 167.304535,650.615479 170.178497,650.597961 
	C178.165619,650.549316 186.153290,650.566956 194.140656,650.589417 
	C197.225586,650.598083 198.733536,648.951538 198.881607,646.036011 
	C199.008072,643.546326 198.707306,641.024292 198.963135,638.554565 
	C199.263107,635.658875 198.229813,634.176636 195.330490,633.913513 
	C192.725403,633.677063 191.751755,632.313721 191.938492,629.609070 
	C192.190063,625.965576 192.167908,622.281433 191.946487,618.633972 
	C191.779907,615.889526 192.892822,614.965576 195.390182,615.408081 
	C198.671722,615.989502 202.750092,613.632263 205.171967,617.095703 
	C208.996124,622.564636 216.282761,626.141602 215.047562,634.536316 
	C214.783936,636.327942 214.767426,638.229614 215.048904,640.015686 
	C216.701843,650.503845 213.343063,658.935730 205.664062,666.255188 
	C203.021362,668.774109 200.830353,670.483948 196.754501,669.923523 
z"/>
<path fill="#090909" opacity="1.000000" stroke="none" 
	d="
M191.686554,414.867065 
	C198.038391,414.775208 198.858780,413.990540 198.911606,408.360352 
	C198.928787,406.527435 198.711594,404.666138 198.960800,402.867584 
	C199.356964,400.008423 198.327560,398.355316 195.456223,398.159210 
	C192.303360,397.943817 191.785278,396.151886 191.955246,393.421844 
	C192.161957,390.101807 192.158173,386.749786 191.955734,383.429230 
	C191.794022,380.776733 192.374008,379.208984 195.390015,379.777405 
	C198.677383,380.396973 202.776764,377.988586 205.209915,381.409973 
	C209.084106,386.857727 216.362549,390.479828 215.042252,398.907593 
	C214.787445,400.534119 214.736511,402.287048 215.048752,403.892792 
	C217.323029,415.588562 212.235413,424.327301 204.215576,432.092987 
	C202.742523,433.519348 201.454651,434.115723 199.504074,434.105530 
	C187.839340,434.044434 176.173676,434.024078 164.509430,434.120941 
	C162.322586,434.139069 161.038086,433.145203 159.389511,431.866699 
	C146.122452,421.578033 148.616638,407.023987 149.643875,393.439392 
	C150.036743,388.243958 155.653931,383.936157 159.900360,380.428040 
	C162.492966,378.286194 166.987213,379.984375 170.620926,379.785004 
	C172.377731,379.688629 172.328125,380.927399 172.325943,382.133514 
	C172.320206,385.299744 172.164597,388.476318 172.367828,391.629486 
	C172.600388,395.237823 172.367279,398.238586 167.727173,398.555725 
	C166.579468,398.634125 165.540909,399.255005 165.571518,400.799927 
	C165.640778,404.296692 165.392578,407.817169 165.720551,411.285767 
	C165.979446,414.023651 167.957642,414.967743 170.726364,414.911896 
	C177.555954,414.774200 184.390198,414.866974 191.686554,414.867065 
z"/>
<path fill="#080808" opacity="1.000000" stroke="none" 
	d="
M180.008698,286.994049 
	C176.683502,286.994049 173.837021,287.200409 171.033096,286.943146 
	C167.312836,286.601807 164.520447,287.196381 164.262344,291.652008 
	C164.155960,293.488586 163.220581,294.335022 161.358978,294.074554 
	C161.195938,294.051727 161.026398,294.065338 160.860504,294.074127 
	C149.243576,294.689453 149.243576,294.689575 149.243576,283.081238 
	C149.243576,276.927185 149.237915,270.773163 149.249344,264.619110 
	C149.251190,263.625275 148.939102,262.072937 149.434219,261.727356 
	C152.954773,259.270172 157.029022,261.040436 160.840256,260.545807 
	C162.698975,260.304535 164.118668,260.747742 164.271027,262.994843 
	C164.568344,267.380127 167.268387,267.949585 171.079453,267.819611 
	C179.053802,267.547791 187.047607,267.598145 195.025497,267.811615 
	C197.866592,267.887634 199.594910,267.138428 199.769989,264.259888 
	C199.977112,260.854767 201.930557,260.470337 204.815704,260.477295 
	C215.003845,260.501770 215.004074,260.409729 215.004074,270.417633 
	C215.004074,277.070648 214.809052,283.731873 215.088165,290.373138 
	C215.223175,293.585449 214.160492,294.449951 211.178040,294.119537 
	C209.042038,293.882874 206.839249,293.890625 204.701111,294.117584 
	C201.689789,294.437195 199.969559,293.547943 199.747925,290.286255 
	C199.574524,287.734467 198.181473,286.783600 195.471985,286.921814 
	C190.495178,287.175690 185.496140,286.994110 180.008698,286.994049 
z"/>
<path fill="#DF981C" opacity="1.000000" stroke="none" 
	d="
M344.982910,388.050079 
	C347.472076,388.050415 349.478851,388.154572 351.470245,388.024200 
	C353.836365,387.869324 355.134613,388.325928 355.115753,391.208893 
	C355.097809,393.946289 354.060455,394.575409 351.577698,394.542908 
	C343.412567,394.435974 335.243561,394.587799 327.079865,394.435944 
	C325.385071,394.404449 322.425262,395.762482 322.261353,392.695343 
	C322.108398,389.834686 320.566620,386.333984 324.382996,384.213776 
	C330.204041,380.979828 335.930115,377.574707 341.685638,374.223572 
	C342.498901,373.750061 343.553162,373.490631 343.847626,371.721161 
	C337.877167,371.721161 332.018433,371.683502 326.160614,371.739777 
	C323.831665,371.762146 321.990143,371.820374 321.989777,368.475342 
	C321.989441,365.243835 323.611267,365.085266 326.055939,365.110016 
	C334.054993,365.191071 342.057526,365.043182 350.053528,365.219452 
	C351.714081,365.256104 354.735596,363.739044 354.853485,366.934387 
	C354.964264,369.936249 356.605927,373.543213 352.462341,375.760132 
	C345.723755,379.365417 339.172882,383.321503 331.753937,387.582581 
	C336.525909,388.724274 340.550934,387.724762 344.982910,388.050079 
z"/>
<path fill="#DF981C" opacity="1.000000" stroke="none" 
	d="
M322.086884,464.082825 
	C321.534302,460.553192 323.045624,458.866913 325.699585,457.427582 
	C331.902588,454.063538 337.941620,450.397095 343.737183,445.721527 
	C338.226349,445.721527 332.713684,445.803223 327.205536,445.681122 
	C325.016815,445.632599 322.062744,446.916290 321.992767,442.536224 
	C321.925171,438.304535 324.627136,439.162506 326.981232,439.152374 
	C334.632202,439.119507 342.285706,439.040741 349.932770,439.217316 
	C351.622467,439.256348 354.651978,437.785187 354.822998,440.805695 
	C354.991150,443.775543 356.695801,447.446747 352.583771,449.663849 
	C346.736420,452.816620 341.038422,456.246796 335.283752,459.570770 
	C334.334686,460.118958 333.422089,460.730255 331.314209,462.050476 
	C338.868927,462.050476 345.064148,462.146027 351.253967,462.005066 
	C353.857544,461.945770 355.154419,462.408630 355.123260,465.479248 
	C355.092377,468.525299 353.487762,468.533112 351.320312,468.521729 
	C342.837799,468.477142 334.351868,468.373627 325.873688,468.570892 
	C322.685486,468.645111 321.631805,467.471069 322.086884,464.082825 
z"/>
<path fill="#DE9618" opacity="1.000000" stroke="none" 
	d="
M335.401245,542.951904 
	C326.328003,540.957703 322.558441,537.281738 321.917145,530.198242 
	C321.127625,521.477600 323.868835,515.860779 330.179688,513.267883 
	C337.506165,510.257751 347.874237,511.853546 352.020508,516.926575 
	C356.177002,522.012207 356.348633,527.923279 354.404236,533.886108 
	C352.534393,539.620178 347.839600,541.973999 342.296234,542.833984 
	C340.186371,543.161377 337.992645,542.948364 335.401245,542.951904 
z"/>
<path fill="#DE9618" opacity="1.000000" stroke="none" 
	d="
M335.035034,307.074585 
	C335.186890,304.486542 334.114197,301.814453 338.137360,301.951141 
	C342.297821,302.092529 340.371979,305.058868 340.958588,306.935150 
	C341.640839,309.117432 338.757782,312.720856 343.977142,313.191772 
	C348.857117,313.632111 349.292419,311.465881 349.285431,307.509613 
	C349.281616,305.346375 346.848999,301.393066 352.006653,301.108948 
	C354.009460,300.998627 355.102539,301.521698 355.044586,303.817383 
	C354.931488,308.299194 354.925751,312.788208 355.048737,317.269501 
	C355.108887,319.460724 354.269989,320.139282 352.149628,320.120605 
	C343.181030,320.041687 334.210754,320.031067 325.242432,320.124969 
	C322.901093,320.149506 321.981812,319.393402 322.060638,316.987549 
	C322.201996,312.673615 322.167206,308.350342 322.074036,304.033813 
	C322.028503,301.925385 322.777161,301.053070 324.953735,301.077057 
	C326.947479,301.098999 328.165771,301.549164 327.986298,303.836609 
	C327.895630,304.992065 327.809692,306.189667 328.009125,307.317352 
	C328.416473,309.620880 326.207062,313.121155 331.394623,313.195282 
	C336.420898,313.267090 334.742706,309.987457 335.035034,307.074585 
z"/>
<path fill="#DE971A" opacity="1.000000" stroke="none" 
	d="
M351.181641,255.230469 
	C345.908600,259.343475 340.109467,259.717102 334.293274,258.686401 
	C323.817474,256.829926 318.617432,246.196518 323.021027,236.422943 
	C323.781464,234.735107 324.550293,234.029449 326.344971,234.939377 
	C327.774109,235.663971 329.728180,235.868973 328.949097,238.295853 
	C328.545868,239.551910 328.070526,240.811935 327.887909,242.106857 
	C327.236115,246.728653 329.070343,249.868881 333.685333,251.087143 
	C335.276367,251.507141 336.936035,251.842606 338.572845,251.884399 
	C347.142212,252.103180 350.331146,248.289963 349.212738,239.852814 
	C349.032593,238.493637 346.163544,235.994690 350.037659,235.218124 
	C353.180817,234.588043 354.545471,236.194931 355.002472,239.164673 
	C355.889191,244.926712 355.945984,250.445816 351.181641,255.230469 
z"/>
<path fill="#DE971A" opacity="1.000000" stroke="none" 
	d="
M336.357574,608.980164 
	C323.959259,606.533447 318.777985,597.755798 322.880524,586.978821 
	C323.525696,585.283997 323.957886,583.817078 326.297638,584.906555 
	C328.009644,585.703674 329.815643,586.132324 328.825623,588.737122 
	C327.257812,592.862183 326.563812,597.143005 331.005798,599.850830 
	C335.879333,602.821655 341.268280,602.871399 346.240234,600.066711 
	C350.598419,597.608154 349.394470,593.281250 349.082153,589.292053 
	C348.978149,587.963684 346.400116,585.673950 350.128815,585.191345 
	C352.630585,584.867493 354.121094,585.649719 354.861298,588.290100 
	C358.171814,600.099609 351.971619,608.718323 339.790955,609.029053 
	C338.792999,609.054504 337.793304,609.010315 336.357574,608.980164 
z"/>
<path fill="#DE9616" opacity="1.000000" stroke="none" 
	d="
M322.117798,192.581421 
	C322.105957,185.814423 322.175415,179.502823 322.068634,173.194183 
	C322.029724,170.894241 322.714417,169.992126 325.159546,169.951797 
	C327.839325,169.907593 328.362335,171.262589 327.980011,173.325012 
	C327.034576,178.425507 329.437714,179.384979 333.992035,179.083496 
	C339.944183,178.689484 345.947052,179.130142 351.918518,178.928223 
	C354.838898,178.829468 355.030609,180.243820 355.073181,182.540192 
	C355.118988,185.011002 354.526184,186.113663 351.777740,186.032257 
	C345.638763,185.850464 339.470276,186.282150 333.353149,185.874207 
	C328.963593,185.581451 327.264221,186.850525 327.940674,191.293533 
	C328.128326,192.525940 328.769135,194.648499 326.459045,194.800125 
	C324.897247,194.902634 322.598328,195.955215 322.117798,192.581421 
z"/>
<path fill="#FFFAEF" opacity="1.000000" stroke="none" 
	d="
M166.990723,510.184082 
	C164.561691,505.912689 165.420395,501.450592 165.941666,497.194122 
	C166.362106,493.761078 169.781189,495.025208 172.086624,494.823822 
	C174.421310,494.619904 175.941116,495.558563 176.140533,498.036865 
	C176.232895,499.184631 176.167847,500.345276 176.169922,501.500061 
	C176.185623,510.251862 176.185287,510.251862 166.990723,510.184082 
z"/>
<path fill="#E5E1D7" opacity="1.000000" stroke="none" 
	d="
M175.395142,219.313782 
	C176.576370,218.981186 177.371933,218.767075 178.177155,218.599472 
	C179.353119,218.354721 181.079529,217.016083 181.584595,218.577209 
	C182.210999,220.513412 182.212463,222.896133 181.701843,224.885208 
	C181.218384,226.768433 179.479324,225.256485 178.457306,225.007935 
	C175.020233,224.172104 171.648941,223.065659 167.164398,221.741470 
	C170.625366,220.732452 172.819595,220.092743 175.395142,219.313782 
z"/>
<path fill="#E5E1D7" opacity="1.000000" stroke="none" 
	d="
M171.174957,580.042847 
	C170.068466,579.671875 169.331223,579.369080 167.640457,578.674744 
	C170.545135,577.812256 172.562408,577.199463 174.587677,576.614319 
	C182.533478,574.318726 182.534409,574.321960 181.515945,582.882507 
	C178.166611,581.951599 174.855423,581.031311 171.174957,580.042847 
z"/>
<path fill="#FEF7E8" opacity="1.000000" stroke="none" 
	d="
M328.250183,523.802368 
	C332.764984,518.820862 341.091248,517.641968 346.209198,520.891602 
	C348.909882,522.606384 349.757874,525.234924 349.560150,528.200500 
	C349.356567,531.253418 347.837677,533.625000 344.887695,534.703430 
	C340.682678,536.240601 336.348785,536.343567 332.191193,534.669800 
	C327.272919,532.689758 327.219360,528.558960 328.250183,523.802368 
z"/>
</svg>